<mxfile host="65bd71144e">
    <diagram id="N4QZJIcqp38-Ae_wIl-9" name="第 1 页">
        <mxGraphModel dx="139" dy="630" grid="1" gridSize="10" guides="1" tooltips="1" connect="1" arrows="1" fold="1" page="1" pageScale="1" pageWidth="827" pageHeight="1169" math="0" shadow="0">
            <root>
                <mxCell id="0"/>
                <mxCell id="1" parent="0"/>
                <mxCell id="2" value="Client" style="rounded=0;whiteSpace=wrap;html=1;" vertex="1" parent="1">
                    <mxGeometry x="20" y="330" width="90" height="30" as="geometry"/>
                </mxCell>
                <mxCell id="3" value="" style="rounded=0;whiteSpace=wrap;html=1;" vertex="1" parent="1">
                    <mxGeometry x="240" y="240" width="580" height="340" as="geometry"/>
                </mxCell>
                <mxCell id="5" value="IO" style="rounded=0;whiteSpace=wrap;html=1;" vertex="1" parent="1">
                    <mxGeometry x="260" y="315" width="50" height="55" as="geometry"/>
                </mxCell>
                <mxCell id="8" value="" style="endArrow=classic;html=1;entryX=-0.01;entryY=0.275;entryDx=0;entryDy=0;entryPerimeter=0;" edge="1" parent="1" target="3">
                    <mxGeometry width="50" height="50" relative="1" as="geometry">
                        <mxPoint x="110" y="334" as="sourcePoint"/>
                        <mxPoint x="230" y="335" as="targetPoint"/>
                    </mxGeometry>
                </mxCell>
                <mxCell id="9" value="" style="endArrow=classic;html=1;entryX=1;entryY=0.75;entryDx=0;entryDy=0;exitX=-0.002;exitY=0.333;exitDx=0;exitDy=0;exitPerimeter=0;" edge="1" parent="1" source="3" target="2">
                    <mxGeometry width="50" height="50" relative="1" as="geometry">
                        <mxPoint x="230" y="353" as="sourcePoint"/>
                        <mxPoint x="420" y="300" as="targetPoint"/>
                    </mxGeometry>
                </mxCell>
                <mxCell id="10" value="SerDe" style="rounded=0;whiteSpace=wrap;html=1;" vertex="1" parent="1">
                    <mxGeometry x="360" y="322.5" width="90" height="40" as="geometry"/>
                </mxCell>
                <mxCell id="11" value="调&lt;br&gt;度&lt;br&gt;器" style="rounded=0;whiteSpace=wrap;html=1;align=center;" vertex="1" parent="1">
                    <mxGeometry x="500" y="280" width="40" height="171.25" as="geometry"/>
                </mxCell>
                <mxCell id="36" style="edgeStyle=none;html=1;exitX=0.5;exitY=1;exitDx=0;exitDy=0;entryX=0.377;entryY=-0.021;entryDx=0;entryDy=0;entryPerimeter=0;" edge="1" parent="1" source="13" target="15">
                    <mxGeometry relative="1" as="geometry"/>
                </mxCell>
                <mxCell id="38" style="edgeStyle=orthogonalEdgeStyle;html=1;exitX=0.25;exitY=1;exitDx=0;exitDy=0;entryX=0.75;entryY=1;entryDx=0;entryDy=0;curved=1;" edge="1" parent="1" source="13" target="10">
                    <mxGeometry relative="1" as="geometry">
                        <Array as="points">
                            <mxPoint x="598" y="500"/>
                            <mxPoint x="428" y="500"/>
                        </Array>
                    </mxGeometry>
                </mxCell>
                <mxCell id="13" value="" style="rounded=0;whiteSpace=wrap;html=1;" vertex="1" parent="1">
                    <mxGeometry x="580" y="280" width="70" height="170" as="geometry"/>
                </mxCell>
                <mxCell id="14" value="Storage" style="rounded=0;whiteSpace=wrap;html=1;" vertex="1" parent="1">
                    <mxGeometry x="700" y="322.19" width="110" height="86.87" as="geometry"/>
                </mxCell>
                <mxCell id="15" value="事件通知" style="rounded=0;whiteSpace=wrap;html=1;" vertex="1" parent="1">
                    <mxGeometry x="515" y="520" width="270" height="40" as="geometry"/>
                </mxCell>
                <mxCell id="16" value="序列化/反序列化" style="text;html=1;strokeColor=none;fillColor=none;align=center;verticalAlign=middle;whiteSpace=wrap;rounded=0;" vertex="1" parent="1">
                    <mxGeometry x="360" y="285" width="90" height="30" as="geometry"/>
                </mxCell>
                <mxCell id="17" value="处理逻辑" style="text;html=1;strokeColor=none;fillColor=none;align=center;verticalAlign=middle;whiteSpace=wrap;rounded=0;" vertex="1" parent="1">
                    <mxGeometry x="585" y="250" width="60" height="30" as="geometry"/>
                </mxCell>
                <mxCell id="18" value="存储" style="text;html=1;strokeColor=none;fillColor=none;align=center;verticalAlign=middle;whiteSpace=wrap;rounded=0;" vertex="1" parent="1">
                    <mxGeometry x="725" y="285" width="60" height="30" as="geometry"/>
                </mxCell>
                <mxCell id="19" value="hget" style="rounded=0;whiteSpace=wrap;html=1;" vertex="1" parent="1">
                    <mxGeometry x="590" y="292.5" width="50" height="17.5" as="geometry"/>
                </mxCell>
                <mxCell id="20" value="hmget" style="rounded=0;whiteSpace=wrap;html=1;" vertex="1" parent="1">
                    <mxGeometry x="590" y="330" width="50" height="17.5" as="geometry"/>
                </mxCell>
                <mxCell id="21" value="hset" style="rounded=0;whiteSpace=wrap;html=1;" vertex="1" parent="1">
                    <mxGeometry x="590" y="370" width="50" height="17.5" as="geometry"/>
                </mxCell>
                <mxCell id="22" value="..." style="text;html=1;strokeColor=none;fillColor=none;align=center;verticalAlign=middle;whiteSpace=wrap;rounded=0;" vertex="1" parent="1">
                    <mxGeometry x="585" y="409.06" width="60" height="30" as="geometry"/>
                </mxCell>
                <mxCell id="24" value="TCP&lt;br&gt;TLS" style="text;html=1;strokeColor=none;fillColor=none;align=center;verticalAlign=middle;whiteSpace=wrap;rounded=0;" vertex="1" parent="1">
                    <mxGeometry x="255" y="379.06" width="60" height="30" as="geometry"/>
                </mxCell>
                <mxCell id="25" value="Protobuf" style="text;html=1;strokeColor=none;fillColor=none;align=center;verticalAlign=middle;whiteSpace=wrap;rounded=0;" vertex="1" parent="1">
                    <mxGeometry x="360" y="370" width="60" height="30" as="geometry"/>
                </mxCell>
                <mxCell id="26" value="" style="endArrow=classic;html=1;exitX=1;exitY=0.5;exitDx=0;exitDy=0;" edge="1" parent="1" source="10">
                    <mxGeometry width="50" height="50" relative="1" as="geometry">
                        <mxPoint x="450" y="320" as="sourcePoint"/>
                        <mxPoint x="500" y="343" as="targetPoint"/>
                    </mxGeometry>
                </mxCell>
                <mxCell id="27" value="" style="endArrow=classic;html=1;entryX=0;entryY=0.25;entryDx=0;entryDy=0;" edge="1" parent="1" target="10">
                    <mxGeometry width="50" height="50" relative="1" as="geometry">
                        <mxPoint x="310" y="333" as="sourcePoint"/>
                        <mxPoint x="500" y="270" as="targetPoint"/>
                    </mxGeometry>
                </mxCell>
                <mxCell id="28" value="" style="endArrow=classic;html=1;entryX=-0.031;entryY=0.125;entryDx=0;entryDy=0;entryPerimeter=0;" edge="1" parent="1" target="13">
                    <mxGeometry width="50" height="50" relative="1" as="geometry">
                        <mxPoint x="540" y="301" as="sourcePoint"/>
                        <mxPoint x="500" y="270" as="targetPoint"/>
                    </mxGeometry>
                </mxCell>
                <mxCell id="29" value="" style="endArrow=classic;html=1;entryX=-0.031;entryY=0.313;entryDx=0;entryDy=0;entryPerimeter=0;exitX=1.021;exitY=0.305;exitDx=0;exitDy=0;exitPerimeter=0;" edge="1" parent="1" source="11" target="13">
                    <mxGeometry width="50" height="50" relative="1" as="geometry">
                        <mxPoint x="550" y="311" as="sourcePoint"/>
                        <mxPoint x="587.8299999999999" y="311.25" as="targetPoint"/>
                    </mxGeometry>
                </mxCell>
                <mxCell id="30" value="" style="endArrow=classic;html=1;entryX=-0.002;entryY=0.572;entryDx=0;entryDy=0;entryPerimeter=0;exitX=0.996;exitY=0.567;exitDx=0;exitDy=0;exitPerimeter=0;" edge="1" parent="1" source="11" target="13">
                    <mxGeometry width="50" height="50" relative="1" as="geometry">
                        <mxPoint x="560" y="321" as="sourcePoint"/>
                        <mxPoint x="597.8299999999999" y="321.25" as="targetPoint"/>
                    </mxGeometry>
                </mxCell>
                <mxCell id="31" value="" style="endArrow=classic;html=1;entryX=0;entryY=0.25;entryDx=0;entryDy=0;" edge="1" parent="1" target="14">
                    <mxGeometry width="50" height="50" relative="1" as="geometry">
                        <mxPoint x="650" y="344" as="sourcePoint"/>
                        <mxPoint x="500" y="270" as="targetPoint"/>
                    </mxGeometry>
                </mxCell>
                <mxCell id="33" value="" style="endArrow=classic;html=1;exitX=0;exitY=0.75;exitDx=0;exitDy=0;entryX=0.983;entryY=0.63;entryDx=0;entryDy=0;entryPerimeter=0;" edge="1" parent="1" source="14" target="13">
                    <mxGeometry width="50" height="50" relative="1" as="geometry">
                        <mxPoint x="450" y="320" as="sourcePoint"/>
                        <mxPoint x="500" y="270" as="targetPoint"/>
                    </mxGeometry>
                </mxCell>
                <mxCell id="34" value="" style="endArrow=classic;html=1;exitX=0;exitY=0.75;exitDx=0;exitDy=0;" edge="1" parent="1" source="10">
                    <mxGeometry width="50" height="50" relative="1" as="geometry">
                        <mxPoint x="450" y="320" as="sourcePoint"/>
                        <mxPoint x="310" y="353" as="targetPoint"/>
                    </mxGeometry>
                </mxCell>
            </root>
        </mxGraphModel>
    </diagram>
</mxfile>